# xmcd
# Track frame offsets:
# 150
# 13005
# 23090
# 36215
# 51122
# 65932
# 79842
# 92185
# 109345
# 124487
# 140490
# 155277
#
# Disc length: 2283 seconds
# Revision: 0
# Processed by: cddbd v1.4PL0 Copyright (c) Steve Scherf et al.
# Submitted via: VisiTrax 2.9.5.180 - For more info visit www.synapsa.com
#
DISCID=a708e90c
DTITLE=Billy D.Hunter - Neon Nights To Day´s Light
DYEAR=1900
DGENRE=
TTITLE0=I´ve Lived It Up
TTITLE1=Old Five And Dimer
TTITLE2=The Trouble With Me
TTITLE3=What The Cards Held For Me
TTITLE4=Walk Softly On The Bridges
TTITLE5=How´s The World Treating You
TTITLE6=After The Storm
TTITLE7=Liquid Salvation
TTITLE8=January,April And Me
TTITLE9=Jamey
TTITLE10=I´d Rather Live Right
TTITLE11=I Have All I Need
EXTD=Special Appearance by\nDICK CURLESS
EXTT0=
EXTT1=
EXTT2=
EXTT3=
EXTT4=
EXTT5=
EXTT6=
EXTT7=
EXTT8=
EXTT9=
EXTT10=
EXTT11=
PLAYORDER=
